<svg version="1.1" viewBox="0 0 44 44" xmlns="http://www.w3.org/2000/svg">
	<defs>
		<linearGradient id="gradient">
			<stop offset="0" stop-color="red" />
			<stop offset="1" stop-color="blue" />
		</linearGradient>
	</defs>
	<g>
		<circle cx="22" cy="22" r="22" fill="url(#gradient)"/>
		<path d="m16.953 10.353c-3.6235 0-6.6 2.9765-6.6 6.6v9.5765c0 3.6235 2.9765 6.6 6.6 6.6h9.5765c3.6235 0 6.6-2.9765 6.6-6.6v-9.5765c0-3.6235-2.9765-6.6-6.6-6.6h-9.5765zm0 1.9412h9.5765c2.5882 0 4.6588 2.0706 4.6588 4.6588v9.5765c0 2.5882-2.0706 4.6588-4.6588 4.6588h-9.5765c-2.5882 0-4.6588-2.0706-4.6588-4.6588v-9.5765c0-2.5882 2.0706-4.6588 4.6588-4.6588zm11 1.9412c-0.7764 0-1.4235 0.647-1.4235 1.4235s0.6471 1.4235 1.4235 1.4235c0.7765 0 1.4236-0.647 1.4236-1.4235s-0.6471-1.4235-1.4236-1.4235zm-6.2117 1.6823c-3.2353 0-5.8236 2.5883-5.8236 5.8236s2.5883 5.8235 5.8236 5.8235 5.8235-2.5882 5.8235-5.8235c0.1294-3.2353-2.5882-5.8236-5.8235-5.8236zm0 1.9412c2.2 0 3.8823 1.6824 3.8823 3.8824s-1.6823 3.8823-3.8823 3.8823-3.8824-1.6823-3.8824-3.8823 1.8118-3.8824 3.8824-3.8824z" fill="#fff"/>
	</g>
</svg>
